<?xml version="1.0" encoding="utf-8"?>
<!-- Generator: Adobe Illustrator 18.0.0, SVG Export Plug-In . SVG Version: 6.00 Build 0)  -->
<!DOCTYPE svg PUBLIC "-//W3C//DTD SVG 1.1//EN" "http://www.w3.org/Graphics/SVG/1.1/DTD/svg11.dtd">
<svg version="1.1" id="Layer_1" xmlns="http://www.w3.org/2000/svg" xmlns:xlink="http://www.w3.org/1999/xlink" x="0px" y="0px"
	 width="340px" height="231px" viewBox="0 0 340 231" enable-background="new 0 0 340 231" xml:space="preserve">
<g>
	<linearGradient id="SVGID_1_" gradientUnits="userSpaceOnUse" x1="308.9325" y1="62.9398" x2="105.425" y2="62.9398">
		<stop  offset="0" style="stop-color:#00B6EC"/>
		<stop  offset="1" style="stop-color:#2356A3"/>
	</linearGradient>
	<path fill-rule="evenodd" clip-rule="evenodd" fill="url(#SVGID_1_)" d="M112.5,70.7h21.6c1.6,0,2.3-0.7,2.3-2.2
		c0-1.7-0.8-2.5-2.3-2.5h-16.7v-6.1h16.7c1.6,0,2.3-0.8,2.3-2.5c0-1.4-0.8-2.1-2.3-2.1h-21.6V70.7L112.5,70.7z M105.4,48.5h30.5
		c5.3,0,7.9,2.4,7.9,7.3c0,2-0.4,3.6-1.3,4.7c-0.9,1.1-2.1,1.9-3.7,2.2c1.6,0.3,2.8,1.1,3.7,2.3c0.9,1.2,1.3,2.9,1.3,5.1
		c0,4.9-2.6,7.3-7.9,7.3h-30.5V48.5L105.4,48.5z M180,55.3h-16.7c-1.5,0-2.7,0.1-3.6,0.4c-1,0.3-1.7,0.7-2.3,1.3
		c-0.6,0.6-1,1.4-1.2,2.4c-0.2,1-0.4,2.2-0.4,3.7v7.5h16.7c1.4,0,2.6-0.1,3.6-0.3c1-0.2,1.7-0.6,2.3-1.2c0.6-0.6,1-1.4,1.3-2.4
		c0.3-1,0.4-2.2,0.4-3.7V55.3L180,55.3z M187.1,48.5V63c0,2.2-0.3,4.3-1,6c-0.6,1.8-1.6,3.3-2.8,4.5c-1.2,1.2-2.8,2.2-4.5,2.8
		c-1.8,0.7-3.8,1-6.1,1h-23.9V62.9c0-2.2,0.3-4.2,1-6c0.7-1.8,1.6-3.3,2.9-4.5c1.2-1.2,2.8-2.2,4.5-2.9c1.8-0.7,3.8-1,6.1-1
		L187.1,48.5L187.1,48.5z M199,77.4h-7V62.9c0-2.2,0.3-4.2,1-6c0.7-1.8,1.6-3.3,2.9-4.5c1.3-1.3,2.8-2.2,4.6-2.9c1.8-0.7,3.8-1,6-1
		l22.2,0v6.8h-22.1c-2.1,0-3.8,0.4-4.9,1.1c-1.1,0.8-1.9,1.8-2.3,3.3c-0.4,2.6-0.4,5-0.4,10.8V77.4L199,77.4z M269.2,77.4h-36.7
		V62.9c0-2.2,0.3-4.2,1-6c0.7-1.8,1.6-3.3,2.9-4.5c1.3-1.3,2.8-2.2,4.6-2.9c1.8-0.7,3.8-1,6-1l22.2,0v6.8h-22.1
		c-2.1,0-3.8,0.4-4.9,1.1c-1.1,0.8-1.9,1.8-2.3,3.3l24.8,0v6.5h-25.2v4.3h29.6V77.4L269.2,77.4z M308.9,48.5V59c0,2.1-2.2,3-3.2,3.8
		c0.9,0.7,2.8,1.3,3,3.7c0,0.9-0.4,1.8-0.7,2.6c-0.6,1.8-1.6,3.3-2.8,4.5c-1.2,1.2-2.7,2.2-4.5,2.8c-1.8,0.7-3.8,1-6.1,1h-21.2v-6.9
		h21.1c2.1,0,3.8-0.3,4.9-1c1.1-0.7,1.9-1.8,2.3-3.3h-16.3v-6.5h16.7v-4.4h-17.1h-11.5v-6.8h13H308.9z"/>
	<linearGradient id="SVGID_2_" gradientUnits="userSpaceOnUse" x1="88.3865" y1="62.9391" x2="26.6259" y2="62.9391">
		<stop  offset="0" style="stop-color:#00AAE3"/>
		<stop  offset="1" style="stop-color:#1F5CA8"/>
	</linearGradient>
	<path fill-rule="evenodd" clip-rule="evenodd" fill="url(#SVGID_2_)" d="M55.1,28.7c-4.4,0-8,6.4-8,14.1v40.5
		c0,7.8,3.6,14.1,8,14.1V28.7L55.1,28.7z M57.9,97.6l24.7-22.3c1.7-1.5,2.6-3.6,2.7-5.7s-0.6-4.3-2.1-5.9l0,0
		c-1.3-1.4-3.1-2.4-4.9-2.6l-0.1,0l0,0l0,0l0,0l0,0c1.6-2.8,1.3-6.5-1-9v0c-0.4-0.4-0.7-0.7-1.1-1L57.9,32.5v-4.2l21.2,21.3l0,0
		c0.2,0.2,0.3,0.3,0.5,0.5l0,0c1,1.1,1.7,2.3,2.1,3.6c0.5,1.3,0.7,2.7,0.6,4.1c0,0.5-0.1,1-0.2,1.5c1.3,0.6,2.4,1.5,3.4,2.5l0,0
		c1,1.1,1.8,2.4,2.2,3.8c0.5,1.4,0.7,2.9,0.6,4.3c-0.1,1.5-0.4,2.9-1.1,4.2c-0.6,1.3-1.5,2.5-2.6,3.5L62.4,97.6H57.9L57.9,97.6z
		 M58,75.5l16.6-15c1.8-1.6,2-4.5,0.3-6.3l0,0c-1.6-1.8-4.5-2-6.3-0.3l-10.7,9.7L58,75.5L58,75.5L58,75.5z M57.9,79.9v13.4
		l22.6-20.3c2-1.8,2.2-5,0.4-7v0c-1.8-2-5-2.2-7-0.4L57.9,79.9L57.9,79.9z M35.3,77.7V49.9c-1.6,0.8-3.1,1.9-4.4,3.2
		c-1.7,1.7-2.9,3.9-3.7,6.3c-0.4,1.4-0.6,2.9-0.6,4.5c0,1.5,0.2,3,0.6,4.5c1.1,3.8,3.7,7,7,8.9C34.6,77.4,34.9,77.5,35.3,77.7
		C35.2,77.7,35.3,77.7,35.3,77.7L35.3,77.7z M45.2,39.4c-4.4,0-8,4.4-8,9.7v27.9c0,5.4,3.6,9.7,8,9.7V39.4z"/>
</g>
<g>
	<path fill-rule="evenodd" clip-rule="evenodd" fill="#FFFFFF" d="M112.5,175.7h21.6c1.6,0,2.3-0.7,2.3-2.2c0-1.7-0.8-2.5-2.3-2.5
		h-16.7v-6.1h16.7c1.6,0,2.3-0.8,2.3-2.5c0-1.4-0.8-2.1-2.3-2.1h-21.6V175.7L112.5,175.7z M105.4,153.5h30.5c5.3,0,7.9,2.4,7.9,7.3
		c0,2-0.4,3.6-1.3,4.7c-0.9,1.1-2.1,1.9-3.7,2.2c1.6,0.3,2.8,1.1,3.7,2.3c0.9,1.2,1.3,2.9,1.3,5.1c0,4.9-2.6,7.3-7.9,7.3h-30.5
		V153.5L105.4,153.5z M180,160.3h-16.7c-1.5,0-2.7,0.1-3.6,0.4c-1,0.3-1.7,0.7-2.3,1.3c-0.6,0.6-1,1.4-1.2,2.4
		c-0.2,1-0.4,2.2-0.4,3.7v7.5h16.7c1.4,0,2.6-0.1,3.6-0.3c1-0.2,1.7-0.6,2.3-1.2c0.6-0.6,1-1.4,1.3-2.4c0.3-1,0.4-2.2,0.4-3.7V160.3
		L180,160.3z M187.1,153.5V168c0,2.2-0.3,4.3-1,6c-0.6,1.8-1.6,3.3-2.8,4.5c-1.2,1.2-2.8,2.2-4.5,2.8c-1.8,0.7-3.8,1-6.1,1h-23.9
		v-14.5c0-2.2,0.3-4.2,1-6c0.7-1.8,1.6-3.3,2.9-4.5c1.2-1.2,2.8-2.2,4.5-2.9c1.8-0.7,3.8-1,6.1-1L187.1,153.5L187.1,153.5z
		 M199,182.4h-7v-14.5c0-2.2,0.3-4.2,1-6c0.7-1.8,1.6-3.3,2.9-4.5c1.3-1.3,2.8-2.2,4.6-2.9c1.8-0.7,3.8-1,6-1l22.2,0v6.8h-22.1
		c-2.1,0-3.8,0.4-4.9,1.1c-1.1,0.8-1.9,1.8-2.3,3.3c-0.4,2.6-0.4,5-0.4,10.8V182.4L199,182.4z M269.2,182.4h-36.7v-14.5
		c0-2.2,0.3-4.2,1-6c0.7-1.8,1.6-3.3,2.9-4.5c1.3-1.3,2.8-2.2,4.6-2.9c1.8-0.7,3.8-1,6-1l22.2,0v6.8h-22.1c-2.1,0-3.8,0.4-4.9,1.1
		c-1.1,0.8-1.9,1.8-2.3,3.3l24.8,0v6.5h-25.2v4.3h29.6V182.4L269.2,182.4z M308.9,153.5V164c0,2.1-2.2,3-3.2,3.8
		c0.9,0.7,2.8,1.3,3,3.7c0,0.9-0.4,1.8-0.7,2.6c-0.6,1.8-1.6,3.3-2.8,4.5c-1.2,1.2-2.7,2.2-4.5,2.8c-1.8,0.7-3.8,1-6.1,1h-21.2v-6.9
		h21.1c2.1,0,3.8-0.3,4.9-1c1.1-0.7,1.9-1.8,2.3-3.3h-16.3v-6.5h16.7v-4.4h-17.1h-11.5v-6.8h13H308.9z"/>
	<path fill-rule="evenodd" clip-rule="evenodd" fill="#FFFFFF" d="M55.1,133.7c-4.4,0-8,6.4-8,14.1v40.5c0,7.8,3.6,14.1,8,14.1
		V133.7L55.1,133.7z M57.9,202.6l24.7-22.3c1.7-1.5,2.6-3.6,2.7-5.7c0.1-2.1-0.6-4.3-2.1-5.9l0,0c-1.3-1.4-3.1-2.4-4.9-2.6l-0.1,0
		l0,0l0,0l0,0l0,0c1.6-2.8,1.3-6.5-1-9v0c-0.4-0.4-0.7-0.7-1.1-1l-18.3-18.5v-4.2l21.2,21.3l0,0c0.2,0.2,0.3,0.3,0.5,0.5l0,0
		c1,1.1,1.7,2.3,2.1,3.6c0.5,1.3,0.7,2.7,0.6,4.1c0,0.5-0.1,1-0.2,1.5c1.3,0.6,2.4,1.5,3.4,2.5l0,0c1,1.1,1.8,2.4,2.2,3.8
		c0.5,1.4,0.7,2.9,0.6,4.3c-0.1,1.5-0.4,2.9-1.1,4.2c-0.6,1.3-1.5,2.5-2.6,3.5l-22.3,20.1H57.9L57.9,202.6z M58,180.5l16.6-15
		c1.8-1.6,2-4.5,0.3-6.3l0,0c-1.6-1.8-4.5-2-6.3-0.3l-10.7,9.7L58,180.5L58,180.5L58,180.5z M57.9,184.9v13.4l22.6-20.3
		c2-1.8,2.2-5,0.4-7v0c-1.8-2-5-2.2-7-0.4L57.9,184.9L57.9,184.9z M35.3,182.7v-27.8c-1.6,0.8-3.1,1.9-4.4,3.2
		c-1.7,1.7-2.9,3.9-3.7,6.3c-0.4,1.4-0.6,2.9-0.6,4.5s0.2,3,0.6,4.5c1.1,3.8,3.7,7,7,8.9C34.6,182.4,34.9,182.5,35.3,182.7
		C35.2,182.7,35.3,182.7,35.3,182.7L35.3,182.7z M45.2,144.4c-4.4,0-8,4.4-8,9.7v27.9c0,5.4,3.6,9.7,8,9.7V144.4z"/>
</g>
</svg>
